<svg id="SvgjsSvg1001" width="288" height="288" xmlns="http://www.w3.org/2000/svg" version="1.1" xmlns:xlink="http://www.w3.org/1999/xlink" xmlns:svgjs="http://svgjs.com/svgjs"><defs id="SvgjsDefs1002"></defs><g id="SvgjsG1008" transform="matrix(1,0,0,1,0,0)"><svg xmlns="http://www.w3.org/2000/svg" viewBox="0 0 32 32" width="288" height="288"><path d="M16.5 15a.5.5 0 1 0 0-1 .5.5 0 0 0 0 1zm1.5-2a.5.5 0 1 0 0-1 .5.5 0 0 0 0 1zm-2 6a.5.5 0 1 0 0-1 .5.5 0 0 0 0 1zm.5-2.5a.5.5 0 1 0 1 0 .5.5 0 0 0-1 0zM19 15a.5.5 0 1 0 0-1 .5.5 0 0 0 0 1zm-5.5 0a.5.5 0 1 0 0-1 .5.5 0 0 0 0 1zm1.5-2a.5.5 0 1 0 0-1 .5.5 0 0 0 0 1zm-.5 4a.5.5 0 1 0 0-1 .5.5 0 0 0 0 1zM25.626 3.026l-2.108-.711a1.5 1.5 0 0 0-1.847.804L20.371 6H8.908l1.945-1.945a.5.5 0 0 0 0-.707 4.607 4.607 0 0 0-6.506 0 4.605 4.605 0 0 0 0 6.506.502.502 0 0 0 .708 0l1.978-1.978c.167 1.954 1.591 3.619 3.534 4.028.255.053.433.255.433.492v3.22c0 1.332.813 2.53 2.073 3.053.266.11.438.379.426.667-.016.415.14.814.438 1.125.16.167.353.297.563.389v5.65c0 .275-.225.5-.5.5h-1.5a2.502 2.502 0 0 0-2.5 2.5.5.5 0 0 0 .5.5h11a.5.5 0 0 0 .5-.5c0-1.379-1.121-2.5-2.5-2.5H18a.501.501 0 0 1-.5-.5v-5.651a1.76 1.76 0 0 0 .563-.389c.299-.311.454-.71.438-1.125a.694.694 0 0 1 .426-.667c1.26-.522 2.073-1.721 2.073-3.053v-3.22c0-.236.178-.438.433-.492A4.518 4.518 0 0 0 25 7.5v-1a.5.5 0 0 0-.5-.5h-3.032l1.114-2.469a.503.503 0 0 1 .616-.269l2.107.711a.499.499 0 1 0 .321-.947zM4.736 8.758c-.024-.031-.053-.059-.075-.091a3.114 3.114 0 0 1-.125-.197 3.455 3.455 0 0 1-.423-1.016c-.016-.067-.037-.132-.049-.2-.008-.042-.007-.086-.013-.129h2.318L4.736 8.758zm-.689-2.633a3.534 3.534 0 0 1 .689-1.682l1.682 1.682H4.047zm3.082-.703L5.446 3.739a3.574 3.574 0 0 1 1.683-.661v2.344zm1-2.338c.503.07.992.234 1.426.506.022.014.045.027.066.042.047.031.088.074.133.107L8.129 5.365V3.084zM8 7.5V7h11.919l-.903 2H8.354A3.455 3.455 0 0 1 8 7.5zM18 28h1.5c.652 0 1.208.418 1.414 1h-9.828c.206-.582.762-1 1.414-1H14c.827 0 1.5-.673 1.5-1.5V21h1v5.5c0 .827.673 1.5 1.5 1.5zm3.226-17.075c-.722.152-1.226.758-1.226 1.471v3.22c0 .926-.571 1.762-1.456 2.129a1.702 1.702 0 0 0-1.043 1.63.538.538 0 0 1-.159.394.79.79 0 0 1-.554.231h-1.576a.787.787 0 0 1-.554-.232.536.536 0 0 1-.159-.394 1.702 1.702 0 0 0-1.043-1.63C12.571 17.377 12 16.541 12 15.615v-3.22c0-.713-.504-1.318-1.226-1.471a3.466 3.466 0 0 1-1.705-.925H22.93a3.456 3.456 0 0 1-1.704.926zM24 7v.5c0 .534-.133 1.04-.354 1.5h-3.532l.902-2H24z" fill="#ffffff" class="color000 svgShape"></path></svg></g></svg>